<svg xmlns="http://www.w3.org/2000/svg" viewBox="0 0 980 980" fill="none" shape-rendering="auto" aria-hidden="true"><metadata xmlns:rdf="http://www.w3.org/1999/02/22-rdf-syntax-ns#" xmlns:xsi="http://www.w3.org/2001/XMLSchema-instance" xmlns:dc="http://purl.org/dc/elements/1.1/" xmlns:dcterms="http://purl.org/dc/terms/"><rdf:RDF><rdf:Description><dc:title>Lorelei</dc:title><dc:creator>Lisa Wischofsky</dc:creator><dc:source xsi:type="dcterms:URI">https://www.figma.com/community/file/1198749693280469639</dc:source><dcterms:license xsi:type="dcterms:URI">https://creativecommons.org/publicdomain/zero/1.0/</dcterms:license><dc:rights>Remix of “Lorelei” (https://www.figma.com/community/file/1198749693280469639) by “Lisa Wischofsky”, licensed under “CC0 1.0” (https://creativecommons.org/publicdomain/zero/1.0/)</dc:rights></rdf:Description></rdf:RDF></metadata><defs><g id="eyes-variant04-348ae68d"><path d="M314 9q12-2 22 7 4 5 6 11-1 9-9 9-6 0-9-5-3-4-9-7c9 16 4 38-10 49-7 6-18 7-25 1q-8-8-8-20l-6 14-3 4q-2-9 1-17 9-25 31-39 9-5 19-7M102 21c26 1 52 17 64 41q3 5 1 10-4-1-7-6-7-11-17-20 3 17-4 32-10 12-25 11-12-1-20-10-7-10-7-24 0-10 5-19-21 6-39 19l-7 3q-7-2-6-8 0-5 4-8 11-11 25-16 17-6 33-5" fill="#000000"/></g><g id="eyebrows-variant08-348ae68d"><path d="M132 29q9-2 19 1 11 4 18 13 4 11 1 23-2 6-8 8-13 3-27-1-11-2-22-7-9-3-13-14-1-9 7-16 11-6 25-7m165 1q8 2 12 9 1 6-1 12l-7 10q-9 5-18 7-10 3-18 2l-8-7c-3-12 3-26 14-31q12-5 26-2" fill="#000000"/></g><g id="nose-variant01-348ae68d"><path d="m42 0 3 15 3 26 8 13 6 12 5 14q5 7 5 16-1 15-14 20l-19 8q-7 5-15 5-8 1-14-5-1-3 3-5l12-3 16-5 13-5q10-4 7-14l-5-8-7-17-7-19q-6-12-5-26 0-11 4-22" fill="#000000"/></g><g id="mouth-happy17-348ae68d"><path d="M178 40q6-1 12 1l21-1q6 0 11 2 5 5 2 11c-3 6-10 11-13 17q-1 3 1 5 2 7-2 13-7 6-18 8l11-12v-4q-4-4-5-9c-2-6 3-12 6-17q-9 1-18-2-6-1-10-7-1-3 2-5" fill="#000000"/></g><g id="head-variant04-348ae68d"><path d="M299 0a231 231 0 0 1 219 204q2 15 0 30 0 5-4 8-4-15-5-29-3-35-16-68A220 220 0 0 0 271 8q-64 6-117 44l-18 13a221 221 0 0 0-78 164q2 34 16 64l17-1q5 3 2 7l-6 1q-24 2-42 18-14 13-17 31-3 24 9 44 14 24 40 34 20 8 43 4 6-1 11 1v3q-7 7-18 7-25 3-48-8a86 86 0 0 1-47-58q-5-29 10-53 12-18 34-26-10-21-12-43-3-27-1-53 3-20 9-38a227 227 0 0 1 99-122c41-28 92-43 142-41" fill="black"/><path d="M338 13a220 220 0 0 1 171 200q1 15 5 29l-2 17v22q-4 8-5 15l-1 23-1 65q0 32-10 61-6 19-19 34-14 18-33 32-17 14-37 24l-22 14-12 8 9-3q-4 19-4 37-1 13 7 22 10 12 25 20 26 16 55 25 11 10 14 25 2 14-5 26-8 15-22 25-20 13-43 22-44 15-92 19-63 5-124-8-26-5-49-17-17-7-28-21-9-9-12-22-2-16 6-30 32-20 49-54 7-17 7-34 2-24 0-47-2-31-8-61 16 18 36 32 26 16 56 26 30 11 63 17 12 4 25 4l8-2q2-1 2-4-9 1-17-2-45-10-87-26-29-10-53-27-26-20-47-47-5-9-12-16v-4q-5-2-11-1-23 4-43-4-26-10-40-34-12-20-9-44 3-18 17-31 18-16 42-18l6-1q3-4-2-7l-17 1q-14-30-16-64 1-21 5-41 7-31 22-59 19-36 51-64l18-13a230 230 0 0 1 184-39" fill="#ffffff"/><path d="M512 281q3 6 2 13l1 29q2 40 0 80c-3 31-14 63-36 86q-38 43-93 63l1 8 1 35q2 8 8 13l26 19 32 20 24 12 4 3-18-4q-29-9-55-25-15-8-25-20-8-9-7-22l4-37-9 3 12-8 22-14q20-11 37-24 19-14 33-32 13-15 19-34 10-29 10-61l1-65 1-23q1-7 5-15M82 343c5 5 4 14 0 19l-3 7 7 6 19 9q-1 6-7 5-10-1-19-6-10-4-12-16 2-8 6-14 2-7-2-12 6-3 11 2m49 93q7 7 12 16 20 27 47 47 24 16 53 27a714 714 0 0 0 104 28q0 3-2 4l-8 2q-13-1-25-4a478 478 0 0 1-119-43q-20-14-36-32 6 30 8 61 2 23 0 47 0 17-7 34-17 34-49 54-6 5-15 8l10-9q20-17 33-40 11-15 15-32 5-29 2-58l-2-59 2-10q-16-18-23-41" fill="black"/><use transform="translate(159 232)" href="#eyes-variant04-348ae68d"/><use transform="translate(164 126)" href="#eyebrows-variant08-348ae68d"/><use transform="translate(359 274)" href="#nose-variant01-348ae68d"/><use transform="translate(223 402)" href="#mouth-happy17-348ae68d"/></g><g id="hair-variant11-348ae68d"><path d="M520 83q23-2 43 8 6 2 10 6 3 5-2 8-4 1-9-1-13-2-28-1a95 95 0 0 0-79 58q23-11 47-15 22-2 42 3 45 10 79 40 30 27 42 67l4 11q15 31 17 66c2 36-9 73-32 101q-17 19-38 32l3 44q2 8 1 17a143 143 0 0 1-111 127q-25 8-52 6h-33q-35 2-69 14l-24 7c-11 4-23 2-34 3q-12 2-24-3a79 79 0 0 1-33-19q-10 6-23 5-12-1-20-12 6-1 9-4 8-9 6-19-3-24-14-44l-18-35-14-30-23-52-12-38a211 211 0 0 1 9-123 282 282 0 0 1 149-153q40-17 82-15 27 3 47 17 0-14 9-26 21-28 53-40 20-9 40-10" fill="#000000"/><use transform="translate(131 168)" href="#head-variant04-348ae68d"/><path d="m552 87 17 7q5 1 5 7 0 5-7 4-15-4-32-2a95 95 0 0 0-80 58q23-11 47-15 27-3 53 5 29 9 54 27 31 23 48 57 18 38 14 81-2 23-14 45-8 14-22 24-12 10-27 16-7 3-16 4-2 1-3-2v-9q-2-21-8-40-9-33-24-64-10-23-28-41 16 32 14 69-3 28-13 54-10 27-29 49-8 10-22 13 4-6 6-13l7-26 5-40q-12 33-35 58-11 11-24 20-9 6-20 7-5 0-3-5t6-10q17-23 28-50 12-33 12-69a362 362 0 0 1-49 78q-22 23-49 38l-27 13q-6 2-11 0-2-3 0-7l14-65q-1-28-4-54-3 12-9 23-15 27-37 48-3 2-2 5-2 21-2 43 2 21 8 42l9 23q2 3 1 7-2 3-6 4-15 2-30-2-17-2-31-12-5-4-11-4c-28-2-56-13-74-35q-21-24-23-55-5-44 11-84a281 281 0 0 1 150-155q40-17 82-15 26 3 47 17 0-13 8-25 16-22 39-34 19-10 39-15 25-5 48 2" fill="#000000"/></g><clipPath id="clip-348ae68d"><rect width="980" height="980" rx="0" ry="0"/></clipPath></defs><g clip-path="url(#clip-348ae68d)"><use transform="translate(76 3)" href="#hair-variant11-348ae68d"/></g></svg>